<?xml version="1.0" encoding="UTF-8"?>
<svg id="b" data-name="Camada 2" xmlns="http://www.w3.org/2000/svg" viewBox="0 0 90 144.8">
  <defs>
    <style>
      .d {
        fill: #fff;
        stroke-width: 0px;
      }
    </style>
  </defs>
  <g id="c" data-name="Camada 1">
    <path class="d" d="M87.38,29.85c-1.22-3.4-2.83-6.61-4.79-9.58C74.54,8.06,60.72,0,45,0,27.51,0,12.36,9.98,4.92,24.56l-.59,1.18C1.56,31.57,0,38.1,0,45c0,4.97.82,9.75,2.31,14.23,1.36,4.07,3.27,7.88,5.67,11.35l37.09,74.23,37.52-75.07c1.96-2.97,3.57-6.18,4.79-9.58,1.69-4.73,2.62-9.83,2.62-15.15s-.93-10.41-2.62-15.15ZM45,65c-11.05,0-20-8.95-20-20s8.95-20,20-20,20,8.95,20,20-8.95,20-20,20Z"/>
  </g>
</svg>