<svg width="29" height="100" viewBox="0 0 29 100" fill="none" xmlns="http://www.w3.org/2000/svg">
<path d="M24 53.2257L24 100L-2.29962e-07 100L2.30313e-06 53.2257L24 53.2257Z" fill="#C5C5C5"/>
<path d="M24 44.3548L24 53.2257L2.30313e-06 53.2257L1.04129e-05 44.3548L24 44.3548Z" fill="#4D4D4D"/>
<path d="M24 35.4838L24 44.3548L1.04129e-05 44.3548L1.85227e-05 35.4838L24 35.4838Z" fill="#C5C5C5"/>
<path d="M24 26.6129L24 35.4838L1.85227e-05 35.4838L1.90032e-05 26.6129L24 26.6129Z" fill="#4D4D4D"/>
<path d="M24 17.7419L24 26.6129L1.90032e-05 26.6129L1.94836e-05 17.7419L24 17.7419Z" fill="#C5C5C5"/>
<path d="M24 8.87095L24 17.7419L1.94836e-05 17.7419L2.75934e-05 8.87095L24 8.87095Z" fill="#4D4D4D"/>
<path d="M24 -1.76406e-07L24 8.87095L2.75934e-05 8.87095L2.80738e-05 -1.02316e-06L24 -1.76406e-07Z" fill="#C5C5C5"/>
<path d="M29 58.8709L29 76.6129L24 76.6129L24 58.8709L29 58.8709Z" fill="#4D4D4D"/>
</svg>
