<?xml version="1.0" encoding="UTF-8"?>
<svg xmlns="http://www.w3.org/2000/svg" viewBox="0 0 1635.64 926.05">
  <defs>
    <style>
      .d {
        fill: #000;
        stroke-width: 0px;
      }
    </style>
  </defs>
  <g id="a" data-name="Camada 1">
    <path class="d" d="M0,387.49c41.84-14.38,264.54-18.73,349.52,2.18,84.98,20.92,299.41,121.6,341.25,111.14,0,0-54.92-69.3-104.6-105.91,0,0,15.68-121.6-41.84-181.73-31.05-32.45-71.61-52.72-107.51-65.13,5.72-.22,10.72-.5,14.54-.82,23.82-2.03,74.09-13.65,42.13-29.35-31.97-15.68-114.48,5.52-115.35,11.45,0,0-1.46-8.54-6.4-11.65-4.93-3.11-18.87-1.83-23.52,3.39-2.59,2.91-3.16,6.4-3.18,8.94-1.27.02-2.56.05-3.87.11-8.89-6.97-30.33-23.37-50.19-35.19-25.86-15.4-69.16-7.56-70.6,0-1.46,7.55,2.9,20.92,33.98,32.11,9.5,3.42,22.78,6.82,36.66,9.9-30.15,6.85-63.64,19.29-93.16,39.64-58.84,40.52-65.38,81.06-77.15,117.66l-36.91,23.99c-20.1,13.05-39.03,27.78-56.61,44.07L0,387.49ZM274.41,117.87c-9.3-2.9-33.11-14.24-24.98-16.84,8.14-2.62,53.31,5.02,60.43,26,2.6,7.72-26.16-6.24-35.45-9.16ZM405.31,134.04c-.06-3.52,23.45-7.72,45.08-6.91,12.18.45,29.53,2.7,29.6,5.64.06,3.11-18.97,6.6-35.47,7.04-17.84.48-39.14-2.42-39.2-5.76Z"/>
    <path class="d" d="M343.94,636.88c2.05,1.88,1.9,5.17-.33,6.85-50.28,37.82-64.27,61.78-64.27,61.78-19.57,28.55-33.02,69.34-54.54,115.81-21.53,46.47-57.81,95.63-94.51,103.27-36.69,7.64-60.21-17.15-60.21-17.15l-12.93-89.49c10.38-16.43,60.73-31.63,73.11-16.49,0,0,11.49,40.52,23.83,44.14,12.34,3.62,39.26-25.59,73.67-93.45,34.71-68.44,44.17-71,67.08-86.86,7.54-5.22,28.97-22.04,40.45-29.22,2.74-1.71,6.27-1.37,8.65.81h0Z"/>
  </g>
  <g id="b" data-name="Camada 3">
    <g>
      <path class="d" d="M1288.03,806.7c-25.43-47.54-64.12-27.4-140.41,36.72-76.28,64.12-84.02,6.63-72.97,0,11.06-6.63,18.79,3.32,18.79,3.32,0,0-1.47-9.4-16.95-12.16-15.48-2.76-20.82,13.64-22.66,16.95s-1.66,18.79,8.84,32.8,40.54,17.32,63.39,7.74c22.85-9.58,56.34-27.89,75.73-33.79,50.86-15.48,58.04-5.14,77.39-16.2,19.35-11.06,8.84-35.38,8.84-35.38Z"/>
      <path class="d" d="M1277.51,806.7c25.43-47.54,64.12-27.4,140.41,36.72,76.28,64.12,84.02,6.63,72.97,0-11.06-6.63-18.79,3.32-18.79,3.32,0,0,1.47-9.4,16.95-12.16,15.48-2.76,20.82,13.64,22.66,16.95s1.66,18.79-8.84,32.8c-10.5,14-40.54,17.32-63.39,7.74-22.85-9.58-56.34-27.89-75.73-33.79-50.86-15.48-58.04-5.14-77.39-16.2-19.35-11.06-8.84-35.38-8.84-35.38Z"/>
    </g>
    <path class="d" d="M1063.09,399.89s-4.53-90.62,37.76-141.98c42.29-51.35,80.05-110.26,188.8-111.77,108.75-1.51,131.4,22.66,190.31,64.95s42.29,232.6,42.29,232.6c0,0,52.86,13.59,80.05,7.55,27.19-6.04,31.72,9.06,33.23,18.12,1.51,9.06-11.33,20.39-41.54,29.45-30.21,9.06-89.12-8.86-273.38-18.12-285.46-14.35-280.18,9.82-361.74-26.43-11.87-5.28-37-15.1-26.43-36.25,7.72-15.43,17.91-3.98,49.89-.53,18.83,2.04,58.13-13.44,80.76-17.6Z"/>
  </g>
</svg>